<svg width="24" height="20" viewBox="0 0 24 20" fill="none" xmlns="http://www.w3.org/2000/svg">
<path d="M16.038 3.05176e-05L19.8924 6.33416H24V8.61181H22.5996L21.6912 18.9557C21.6662 19.2403 21.5295 19.5056 21.3081 19.699C21.0868 19.8924 20.7969 19.9999 20.496 20H3.504C3.20289 20.0002 2.91273 19.8929 2.69111 19.6994C2.46948 19.506 2.33259 19.2405 2.3076 18.9557L1.3992 8.61181H0V6.33416H4.1064L7.9608 3.05176e-05L10.0392 1.13885L6.8784 6.33416H17.1204L13.9608 1.13885L16.0392 3.05176e-05H16.038ZM20.19 8.61181H3.8088L4.6092 17.7224H19.392L20.1924 8.61181H20.19ZM13.2 10.8895V15.4447H10.8V10.8895H13.2ZM8.4 10.8895V15.4447H6V10.8895H8.4ZM18 10.8895V15.4447H15.6V10.8895H18Z" fill="white"/>
</svg>
