<svg width="21" height="25" viewBox="0 0 21 25" fill="none" xmlns="http://www.w3.org/2000/svg">
<path d="M4.20245 8.37633C4.20245 8.18913 4.27624 8.00959 4.40759 7.87721C4.53895 7.74484 4.7171 7.67047 4.90286 7.67047H11.9069C12.0927 7.67047 12.2708 7.74484 12.4022 7.87721C12.5336 8.00959 12.6073 8.18913 12.6073 8.37633C12.6073 8.56354 12.5336 8.74308 12.4022 8.87545C12.2708 9.00783 12.0927 9.0822 11.9069 9.0822H4.90286C4.7171 9.0822 4.53895 9.00783 4.40759 8.87545C4.27624 8.74308 4.20245 8.56354 4.20245 8.37633ZM4.90286 11.9057C4.7171 11.9057 4.53895 11.98 4.40759 12.1124C4.27624 12.2448 4.20245 12.4243 4.20245 12.6115C4.20245 12.7987 4.27624 12.9783 4.40759 13.1106C4.53895 13.243 4.7171 13.3174 4.90286 13.3174H11.9069C12.0927 13.3174 12.2708 13.243 12.4022 13.1106C12.5336 12.9783 12.6073 12.7987 12.6073 12.6115C12.6073 12.4243 12.5336 12.2448 12.4022 12.1124C12.2708 11.98 12.0927 11.9057 11.9069 11.9057H4.90286ZM4.20245 16.8467C4.20245 16.6595 4.27624 16.48 4.40759 16.3476C4.53895 16.2152 4.7171 16.1409 4.90286 16.1409H7.70449C7.89025 16.1409 8.0684 16.2152 8.19975 16.3476C8.33111 16.48 8.4049 16.6595 8.4049 16.8467C8.4049 17.0339 8.33111 17.2135 8.19975 17.3458C8.0684 17.4782 7.89025 17.5526 7.70449 17.5526H4.90286C4.7171 17.5526 4.53895 17.4782 4.40759 17.3458C4.27624 17.2135 4.20245 17.0339 4.20245 16.8467ZM2.80163 1.31768C2.80163 1.13047 2.87543 0.950935 3.00678 0.81856C3.13813 0.686184 3.31628 0.611816 3.50204 0.611816C3.6878 0.611816 3.86595 0.686184 3.9973 0.81856C4.12866 0.950935 4.20245 1.13047 4.20245 1.31768V2.02355H7.70449V1.31768C7.70449 1.13047 7.77828 0.950935 7.90963 0.81856C8.04099 0.686184 8.21914 0.611816 8.4049 0.611816C8.59066 0.611816 8.76881 0.686184 8.90016 0.81856C9.03151 0.950935 9.10531 1.13047 9.10531 1.31768V2.02355H12.6073V1.31768C12.6073 1.13047 12.6811 0.950935 12.8125 0.81856C12.9438 0.686184 13.122 0.611816 13.3078 0.611816C13.4935 0.611816 13.6717 0.686184 13.803 0.81856C13.9344 0.950935 14.0082 1.13047 14.0082 1.31768V2.02355H14.7086C15.2658 2.02355 15.8003 2.24665 16.1944 2.64378C16.5884 3.0409 16.8098 3.57952 16.8098 4.14114V10.8215C16.3531 11.0191 15.9245 11.3043 15.5519 11.6812L15.409 11.8252V4.14114C15.409 3.95394 15.3352 3.7744 15.2038 3.64202C15.0725 3.50964 14.8943 3.43528 14.7086 3.43528H2.10122C1.91546 3.43528 1.73731 3.50964 1.60596 3.64202C1.47461 3.7744 1.40082 3.95394 1.40082 4.14114V21.0819C1.40082 21.2691 1.47461 21.4487 1.60596 21.581C1.73731 21.7134 1.91546 21.7878 2.10122 21.7878H7.31226L7.08393 22.7096C7.04404 22.8703 7.01872 23.0342 7.00828 23.1995H2.10122C1.54394 23.1995 1.00949 22.9764 0.615434 22.5793C0.221378 22.1821 0 21.6435 0 21.0819V4.14114C0 3.57952 0.221378 3.0409 0.615434 2.64378C1.00949 2.24665 1.54394 2.02355 2.10122 2.02355H2.80163V1.31768ZM16.5436 12.6793L9.7777 19.4979C9.38336 19.8952 9.10351 20.3929 8.96803 20.9379L8.44272 23.0527C8.39091 23.263 8.39397 23.4833 8.45159 23.6921C8.50921 23.9008 8.61944 24.0911 8.77157 24.2442C8.92369 24.3974 9.11254 24.5083 9.31976 24.5662C9.52699 24.6241 9.74555 24.6269 9.9542 24.5745L12.0526 24.0465C12.5935 23.9102 13.0874 23.6281 13.4815 23.2306L20.2474 16.4119C20.7323 15.9154 21.0028 15.2459 21 14.5493C20.9972 13.8527 20.7213 13.1855 20.2324 12.693C19.7435 12.2005 19.0813 11.9227 18.3901 11.9201C17.6989 11.9176 17.0347 12.1904 16.5422 12.6793H16.5436Z" fill="white"/>
</svg>
